<?xml version="1.0" encoding="UTF-8"?>
<svg width="154px" height="112px" viewBox="0 0 154 112" version="1.1" xmlns="http://www.w3.org/2000/svg" xmlns:xlink="http://www.w3.org/1999/xlink">
    <title>slogan_image</title>
    <defs>
        <rect id="path-1" x="0" y="0" width="154" height="34" rx="3"></rect>
        <rect id="path-3" x="0" y="0" width="154" height="34" rx="3"></rect>
        <rect id="path-5" x="0.75586881" y="0" width="154" height="34" rx="3"></rect>
    </defs>
    <g id="Page-1" stroke="none" stroke-width="1" fill="none" fill-rule="evenodd">
        <g id="Shape">
            <mask id="mask-2" fill="white">
                <use xlink:href="#path-1"></use>
            </mask>
            <use id="Mask" fill="#DE62DB" xlink:href="#path-1"></use>
            <path d="M11.35,7 C15.5749783,7 19,10.4392985 19,14.6818882 C19,16.2533441 18.0927988,18.2118588 16.2783965,20.5574324 L6.80334483,30.437913 C6.11240804,31.1584143 4.96821135,31.1823812 4.24770999,30.4914444 C4.22990708,30.474372 4.2124555,30.4569369 4.19536621,30.4391502 L-5.3,20.5562734 L-5.3,20.5562734 C-7.1,18.2114724 -8,16.2533441 -8,14.6818882 C-8,10.4392985 -4.57497834,7 -0.35,7 C1.9969744,7 4.0970982,8.06129864 5.500393,9.73204183 C6.9029018,8.06129864 9.0030256,7 11.35,7 Z" stroke="#FFFFFF" stroke-width="2" mask="url(#mask-2)"></path>
        </g>
        <path d="M44.178,28 C45.098,28 45.558,27.5936667 45.558,26.781 C45.558,25.9683333 45.098,25.562 44.178,25.562 L44.178,25.562 L37.715,25.562 L37.715,13.142 C37.715,12.6973333 37.5808333,12.3408333 37.3125,12.0725 C37.0441667,11.8041667 36.68,11.67 36.22,11.67 C35.7753333,11.67 35.4188333,11.8041667 35.1505,12.0725 C34.8821667,12.3408333 34.748,12.6973333 34.748,13.142 L34.748,13.142 L34.748,26.62 C34.748,27.0493333 34.8706667,27.3866667 35.116,27.632 C35.3613333,27.8773333 35.7063333,28 36.151,28 L36.151,28 L44.178,28 Z M48.686,14.476 C49.2073333,14.476 49.6213333,14.3341667 49.928,14.0505 C50.2346667,13.7668333 50.388,13.395 50.388,12.935 C50.388,12.475 50.2308333,12.107 49.9165,11.831 C49.6021667,11.555 49.192,11.417 48.686,11.417 C48.1646667,11.417 47.7506667,11.555 47.444,11.831 C47.1373333,12.107 46.984,12.475 46.984,12.935 C46.984,13.395 47.1373333,13.7668333 47.444,14.0505 C47.7506667,14.3341667 48.1646667,14.476 48.686,14.476 Z M48.686,28.138 C49.1,28.138 49.445,28.0191667 49.721,27.7815 C49.997,27.5438333 50.135,27.2026667 50.135,26.758 L50.135,26.758 L50.135,17.88 C50.135,17.4353333 49.997,17.098 49.721,16.868 C49.445,16.638 49.1,16.523 48.686,16.523 C48.272,16.523 47.9308333,16.638 47.6625,16.868 C47.3941667,17.098 47.26,17.4353333 47.26,17.88 L47.26,17.88 L47.26,26.758 C47.26,27.2026667 47.3941667,27.5438333 47.6625,27.7815 C47.9308333,28.0191667 48.272,28.138 48.686,28.138 Z M58.369,28.184 C58.967,28.184 59.5956667,28.0958333 60.255,27.9195 C60.9143333,27.7431667 61.5046667,27.5093333 62.026,27.218 C62.5933333,26.896 62.877,26.4973333 62.877,26.022 C62.877,25.6846667 62.7965,25.4163333 62.6355,25.217 C62.4745,25.0176667 62.2636667,24.918 62.003,24.918 C61.7883333,24.918 61.451,25.0406667 60.991,25.286 C60.5156667,25.5006667 60.0901667,25.6693333 59.7145,25.792 C59.3388333,25.9146667 58.9056667,25.976 58.415,25.976 C57.449,25.976 56.713,25.7268333 56.207,25.2285 C55.701,24.7301667 55.402,23.952 55.31,22.894 L55.31,22.894 L62.095,22.894 C62.6776667,22.894 62.969,22.5643333 62.969,21.905 C62.969,20.801 62.762,19.8426667 62.348,19.03 C61.934,18.2173333 61.3513333,17.5886667 60.6,17.144 C59.8486667,16.6993333 58.967,16.477 57.955,16.477 C56.897,16.477 55.9501667,16.7223333 55.1145,17.213 C54.2788333,17.7036667 53.631,18.3936667 53.171,19.283 C52.711,20.1723333 52.481,21.192 52.481,22.342 C52.481,24.1513333 53.01,25.5773333 54.068,26.62 C55.126,27.6626667 56.5596667,28.184 58.369,28.184 Z M60.508,21.353 L55.31,21.353 C55.402,20.433 55.6818333,19.7276667 56.1495,19.237 C56.6171667,18.7463333 57.242,18.501 58.024,18.501 C58.7906667,18.501 59.3886667,18.7425 59.818,19.2255 C60.2473333,19.7085 60.4773333,20.4176667 60.508,21.353 L60.508,21.353 Z M71.778,28.184 C72.744,28.184 73.6065,27.9386667 74.3655,27.448 C75.1245,26.9573333 75.7148333,26.2635 76.1365,25.3665 C76.5581667,24.4695 76.769,23.4383333 76.769,22.273 C76.769,21.1076667 76.5581667,20.088 76.1365,19.214 C75.7148333,18.34 75.1283333,17.6653333 74.377,17.19 C73.6256667,16.7146667 72.7593333,16.477 71.778,16.477 C70.9806667,16.477 70.2676667,16.6418333 69.639,16.9715 C69.0103333,17.3011667 68.5273333,17.7726667 68.19,18.386 L68.19,18.386 L68.19,12.958 C68.19,12.5593333 68.0596667,12.245 67.799,12.015 C67.5383333,11.785 67.1933333,11.67 66.764,11.67 C66.3346667,11.67 65.9858333,11.7926667 65.7175,12.038 C65.4491667,12.2833333 65.315,12.6053333 65.315,13.004 L65.315,13.004 L65.315,26.758 C65.315,27.172 65.4415,27.5016667 65.6945,27.747 C65.9475,27.9923333 66.2886667,28.115 66.718,28.115 C67.1473333,28.115 67.4923333,27.9923333 67.753,27.747 C68.0136667,27.5016667 68.144,27.172 68.144,26.758 L68.144,26.758 L68.144,26.183 C68.4813333,26.8116667 68.9681667,27.3023333 69.6045,27.655 C70.2408333,28.0076667 70.9653333,28.184 71.778,28.184 Z M71.019,25.953 C70.099,25.953 69.3898333,25.6386667 68.8915,25.01 C68.3931667,24.3813333 68.144,23.4843333 68.144,22.319 C68.144,21.1536667 68.3931667,20.2605 68.8915,19.6395 C69.3898333,19.0185 70.099,18.708 71.019,18.708 C71.939,18.708 72.6481667,19.0146667 73.1465,19.628 C73.6448333,20.2413333 73.894,21.123 73.894,22.273 C73.894,23.4383333 73.641,24.343 73.135,24.987 C72.629,25.631 71.9236667,25.953 71.019,25.953 Z M84.405,28.184 C85.003,28.184 85.6316667,28.0958333 86.291,27.9195 C86.9503333,27.7431667 87.5406667,27.5093333 88.062,27.218 C88.6293333,26.896 88.913,26.4973333 88.913,26.022 C88.913,25.6846667 88.8325,25.4163333 88.6715,25.217 C88.5105,25.0176667 88.2996667,24.918 88.039,24.918 C87.8243333,24.918 87.487,25.0406667 87.027,25.286 C86.5516667,25.5006667 86.1261667,25.6693333 85.7505,25.792 C85.3748333,25.9146667 84.9416667,25.976 84.451,25.976 C83.485,25.976 82.749,25.7268333 82.243,25.2285 C81.737,24.7301667 81.438,23.952 81.346,22.894 L81.346,22.894 L88.131,22.894 C88.7136667,22.894 89.005,22.5643333 89.005,21.905 C89.005,20.801 88.798,19.8426667 88.384,19.03 C87.97,18.2173333 87.3873333,17.5886667 86.636,17.144 C85.8846667,16.6993333 85.003,16.477 83.991,16.477 C82.933,16.477 81.9861667,16.7223333 81.1505,17.213 C80.3148333,17.7036667 79.667,18.3936667 79.207,19.283 C78.747,20.1723333 78.517,21.192 78.517,22.342 C78.517,24.1513333 79.046,25.5773333 80.104,26.62 C81.162,27.6626667 82.5956667,28.184 84.405,28.184 Z M86.544,21.353 L81.346,21.353 C81.438,20.433 81.7178333,19.7276667 82.1855,19.237 C82.6531667,18.7463333 83.278,18.501 84.06,18.501 C84.8266667,18.501 85.4246667,18.7425 85.854,19.2255 C86.2833333,19.7085 86.5133333,20.4176667 86.544,21.353 L86.544,21.353 Z M95.928,28.115 C96.2346667,28.115 96.5145,28.0383333 96.7675,27.885 C97.0205,27.7316667 97.216,27.5093333 97.354,27.218 L97.354,27.218 L101.609,18.317 C101.701,18.133 101.747,17.949 101.747,17.765 C101.747,17.4123333 101.605167,17.1171667 101.3215,16.8795 C101.037833,16.6418333 100.719667,16.523 100.367,16.523 C100.121667,16.523 99.8955,16.592 99.6885,16.73 C99.4815,16.868 99.3166667,17.075 99.194,17.351 L99.194,17.351 L95.997,24.435 L92.777,17.328 C92.5163333,16.7913333 92.11,16.523 91.558,16.523 C91.1746667,16.523 90.8335,16.6456667 90.5345,16.891 C90.2355,17.1363333 90.086,17.4353333 90.086,17.788 C90.086,17.9873333 90.1243333,18.1636667 90.201,18.317 L90.201,18.317 L94.479,27.218 C94.617,27.5093333 94.8201667,27.7316667 95.0885,27.885 C95.3568333,28.0383333 95.6366667,28.115 95.928,28.115 Z M108.578,28.184 C109.728,28.184 110.736167,27.9463333 111.6025,27.471 C112.468833,26.9956667 113.135833,26.3133333 113.6035,25.424 C114.071167,24.5346667 114.305,23.4996667 114.305,22.319 C114.305,21.1383333 114.071167,20.1071667 113.6035,19.2255 C113.135833,18.3438333 112.468833,17.6653333 111.6025,17.19 C110.736167,16.7146667 109.728,16.477 108.578,16.477 C107.428,16.477 106.419833,16.7146667 105.5535,17.19 C104.687167,17.6653333 104.016333,18.3438333 103.541,19.2255 C103.065667,20.1071667 102.828,21.1383333 102.828,22.319 C102.828,23.4996667 103.065667,24.5346667 103.541,25.424 C104.016333,26.3133333 104.687167,26.9956667 105.5535,27.471 C106.419833,27.9463333 107.428,28.184 108.578,28.184 Z M108.555,25.953 C107.635,25.953 106.929667,25.6463333 106.439,25.033 C105.948333,24.4196667 105.703,23.515 105.703,22.319 C105.703,21.1383333 105.952167,20.2375 106.4505,19.6165 C106.948833,18.9955 107.658,18.685 108.578,18.685 C109.498,18.685 110.203333,18.9955 110.694,19.6165 C111.184667,20.2375 111.43,21.1383333 111.43,22.319 C111.43,23.515 111.184667,24.4196667 110.694,25.033 C110.203333,25.6463333 109.490333,25.953 108.555,25.953 Z M118.1,28.138 C118.514,28.138 118.859,28.0191667 119.135,27.7815 C119.411,27.5438333 119.549,27.2026667 119.549,26.758 L119.549,26.758 L119.549,13.027 C119.549,12.5823333 119.411,12.245 119.135,12.015 C118.859,11.785 118.514,11.67 118.1,11.67 C117.686,11.67 117.344833,11.785 117.0765,12.015 C116.808167,12.245 116.674,12.5823333 116.674,13.027 L116.674,13.027 L116.674,26.758 C116.674,27.2026667 116.808167,27.5438333 117.0765,27.7815 C117.344833,28.0191667 117.686,28.138 118.1,28.138 Z M123.942,28.138 C124.356,28.138 124.701,28.0191667 124.977,27.7815 C125.253,27.5438333 125.391,27.2026667 125.391,26.758 L125.391,26.758 L125.391,13.027 C125.391,12.5823333 125.253,12.245 124.977,12.015 C124.701,11.785 124.356,11.67 123.942,11.67 C123.528,11.67 123.186833,11.785 122.9185,12.015 C122.650167,12.245 122.516,12.5823333 122.516,13.027 L122.516,13.027 L122.516,26.758 C122.516,27.2026667 122.650167,27.5438333 122.9185,27.7815 C123.186833,28.0191667 123.528,28.138 123.942,28.138 Z M129.715,28.138 C130.205667,28.138 130.612,27.9731667 130.934,27.6435 C131.256,27.3138333 131.417,26.9036667 131.417,26.413 C131.417,25.9223333 131.256,25.5121667 130.934,25.1825 C130.612,24.8528333 130.205667,24.688 129.715,24.688 C129.224333,24.688 128.818,24.8528333 128.496,25.1825 C128.174,25.5121667 128.013,25.9223333 128.013,26.413 C128.013,26.9036667 128.174,27.3138333 128.496,27.6435 C128.818,27.9731667 129.224333,28.138 129.715,28.138 Z" id="Liebevoll." fill="#FFFFFF" fill-rule="nonzero"></path>
        <g id="Shape" transform="translate(0.000000, 39.000000)">
            <mask id="mask-4" fill="white">
                <use xlink:href="#path-3"></use>
            </mask>
            <use id="Mask" fill="#859AE9" xlink:href="#path-3"></use>
            <path d="M15.7683975,15.5812068 L15.7683975,9.38486941 C15.7683975,8.59231462 15.1080767,7.9438607 14.3010179,7.9438607 L12.8336383,7.9438607 C12.0265795,7.9438607 11.3662587,8.59231462 11.3662587,9.38486941 L11.3662587,11.6904833 L6.47988467,7.36745722 C5.92228042,6.87751426 5.07120025,6.87751426 4.513596,7.36745722 L-7.75369744,18.2182528 C-8.2526065,18.6505554 -7.94445679,19.4719304 -7.26946217,19.4719304 L-4.77491685,19.4719304 L-4.77491685,30 C-4.77491685,30.5522847 -4.3272016,31 -3.77491685,31 L1.56198114,31 C2.11426589,31 2.56198114,30.5522847 2.56198114,30 L2.56198114,22.3539478 L2.56198114,22.3539478 L8.43149953,22.3539478 L8.43149953,30 C8.43149953,30.5522847 8.87921478,31 9.43149953,31 L14.7683975,31 C15.3206823,31 15.7683975,30.5522847 15.7683975,30 L15.7683975,19.4719304 L15.7683975,19.4719304 L18.2629428,19.4719304 C18.9379375,19.4719304 19.260761,18.6505554 18.7471781,18.2182528 L15.7683975,15.5812068 Z M2.56198114,16.5899129 C2.56198114,15.0048034 3.88262278,13.7078955 5.49674034,13.7078955 C7.11085789,13.7078955 8.43149953,15.0048034 8.43149953,16.5899129 L2.56198114,16.5899129 Z" stroke="#FFFFFF" stroke-width="1.2" fill-rule="nonzero" mask="url(#mask-4)"></path>
        </g>
        <path d="M44.937,67 C45.857,67 46.317,66.6013333 46.317,65.804 C46.317,65.022 45.857,64.631 44.937,64.631 L44.937,64.631 L37.416,64.631 L45.65,53.085 C45.9106667,52.7323333 46.041,52.3796667 46.041,52.027 C46.041,51.6743333 45.9221667,51.3791667 45.6845,51.1415 C45.4468333,50.9038333 45.1286667,50.785 44.73,50.785 L44.73,50.785 L35.231,50.785 C34.311,50.785 33.851,51.1836667 33.851,51.981 C33.851,52.763 34.311,53.154 35.231,53.154 L35.231,53.154 L42.43,53.154 L34.196,64.677 C33.9506667,65.0143333 33.828,65.367 33.828,65.735 C33.828,66.103 33.9468333,66.4058333 34.1845,66.6435 C34.4221667,66.8811667 34.7403333,67 35.139,67 L35.139,67 L44.937,67 Z M52.412,67.184 C53.1633333,67.184 53.838,67.0191667 54.436,66.6895 C55.034,66.3598333 55.5093333,65.8883333 55.862,65.275 L55.862,65.275 L55.862,65.85 C55.862,66.2486667 55.9846667,66.563 56.23,66.793 C56.4753333,67.023 56.805,67.138 57.219,67.138 C57.6483333,67.138 57.9971667,67.0153333 58.2655,66.77 C58.5338333,66.5246667 58.668,66.2026667 58.668,65.804 L58.668,65.804 L58.668,56.88 C58.668,56.466 58.5376667,56.1363333 58.277,55.891 C58.0163333,55.6456667 57.6636667,55.523 57.219,55.523 C56.7896667,55.523 56.4446667,55.6456667 56.184,55.891 C55.9233333,56.1363333 55.793,56.466 55.793,56.88 L55.793,56.88 L55.793,62.009 C55.793,62.883 55.5515,63.5845 55.0685,64.1135 C54.5855,64.6425 53.9453333,64.907 53.148,64.907 C52.458,64.907 51.952,64.7153333 51.63,64.332 C51.308,63.9486667 51.147,63.3583333 51.147,62.561 L51.147,62.561 L51.147,56.88 C51.147,56.466 51.0166667,56.1363333 50.756,55.891 C50.4953333,55.6456667 50.1426667,55.523 49.698,55.523 C49.2686667,55.523 48.9236667,55.6456667 48.663,55.891 C48.4023333,56.1363333 48.272,56.466 48.272,56.88 L48.272,56.88 L48.272,62.538 C48.272,65.6353333 49.652,67.184 52.412,67.184 Z M70.766,67.138 C71.2106667,67.138 71.5595,67.0153333 71.8125,66.77 C72.0655,66.5246667 72.192,66.1873333 72.192,65.758 L72.192,65.758 L72.192,60.1 C72.192,57.018 70.8733333,55.477 68.236,55.477 C67.4233333,55.477 66.6988333,55.6341667 66.0625,55.9485 C65.4261667,56.2628333 64.9163333,56.719 64.533,57.317 L64.533,57.317 L64.533,51.958 C64.533,51.5593333 64.4026667,51.245 64.142,51.015 C63.8813333,50.785 63.5363333,50.67 63.107,50.67 C62.6776667,50.67 62.3288333,50.7926667 62.0605,51.038 C61.7921667,51.2833333 61.658,51.6053333 61.658,52.004 L61.658,52.004 L61.658,65.758 C61.658,66.1873333 61.7845,66.5246667 62.0375,66.77 C62.2905,67.0153333 62.6393333,67.138 63.084,67.138 C63.5286667,67.138 63.8813333,67.0153333 64.142,66.77 C64.4026667,66.5246667 64.533,66.1873333 64.533,65.758 L64.533,65.758 L64.533,60.629 C64.533,59.755 64.7821667,59.0573333 65.2805,58.536 C65.7788333,58.0146667 66.442,57.754 67.27,57.754 C67.9753333,57.754 68.4928333,57.9418333 68.8225,58.3175 C69.1521667,58.6931667 69.317,59.2873333 69.317,60.1 L69.317,60.1 L69.317,65.758 C69.317,66.1873333 69.4473333,66.5246667 69.708,66.77 C69.9686667,67.0153333 70.3213333,67.138 70.766,67.138 Z M78.701,67.184 C79.437,67.184 80.0848333,67.0153333 80.6445,66.678 C81.2041667,66.3406667 81.6143333,65.873 81.875,65.275 L81.875,65.275 L81.875,65.781 C81.875,66.1796667 82.0015,66.5016667 82.2545,66.747 C82.5075,66.9923333 82.8333333,67.115 83.232,67.115 C83.6613333,67.115 83.9986667,66.9961667 84.244,66.7585 C84.4893333,66.5208333 84.612,66.195 84.612,65.781 L84.612,65.781 L84.612,60.169 C84.612,58.5896667 84.2325,57.4128333 83.4735,56.6385 C82.7145,55.8641667 81.553,55.477 79.989,55.477 C79.2683333,55.477 78.5361667,55.5613333 77.7925,55.73 C77.0488333,55.8986667 76.4086667,56.1286667 75.872,56.42 C75.5653333,56.5886667 75.3468333,56.7688333 75.2165,56.9605 C75.0861667,57.1521667 75.021,57.3783333 75.021,57.639 C75.021,57.961 75.1091667,58.2216667 75.2855,58.421 C75.4618333,58.6203333 75.688,58.72 75.964,58.72 C76.148,58.72 76.4393333,58.6203333 76.838,58.421 C77.4666667,58.1756667 78.011,57.9878333 78.471,57.8575 C78.931,57.7271667 79.3833333,57.662 79.828,57.662 C80.5486667,57.662 81.07,57.8345 81.392,58.1795 C81.714,58.5245 81.875,59.0726667 81.875,59.824 L81.875,59.824 L81.875,60.353 L81.3,60.353 C79.6286667,60.353 78.3176667,60.4603333 77.367,60.675 C76.4163333,60.8896667 75.7301667,61.2346667 75.3085,61.71 C74.8868333,62.1853333 74.676,62.837 74.676,63.665 C74.676,64.3243333 74.8523333,64.9223333 75.205,65.459 C75.5576667,65.9956667 76.0406667,66.4173333 76.654,66.724 C77.2673333,67.0306667 77.9496667,67.184 78.701,67.184 Z M79.276,65.114 C78.77,65.114 78.3445,64.9568333 77.9995,64.6425 C77.6545,64.3281667 77.482,63.9256667 77.482,63.435 C77.482,63.0363333 77.6046667,62.722 77.85,62.492 C78.0953333,62.262 78.5016667,62.101 79.069,62.009 C79.6363333,61.917 80.4336667,61.871 81.461,61.871 L81.461,61.871 L81.875,61.871 L81.875,62.354 C81.875,63.1666667 81.6335,63.8298333 81.1505,64.3435 C80.6675,64.8571667 80.0426667,65.114 79.276,65.114 Z M91.604,67.184 C92.3553333,67.184 93.03,67.0191667 93.628,66.6895 C94.226,66.3598333 94.7013333,65.8883333 95.054,65.275 L95.054,65.275 L95.054,65.85 C95.054,66.2486667 95.1766667,66.563 95.422,66.793 C95.6673333,67.023 95.997,67.138 96.411,67.138 C96.8403333,67.138 97.1891667,67.0153333 97.4575,66.77 C97.7258333,66.5246667 97.86,66.2026667 97.86,65.804 L97.86,65.804 L97.86,56.88 C97.86,56.466 97.7296667,56.1363333 97.469,55.891 C97.2083333,55.6456667 96.8556667,55.523 96.411,55.523 C95.9816667,55.523 95.6366667,55.6456667 95.376,55.891 C95.1153333,56.1363333 94.985,56.466 94.985,56.88 L94.985,56.88 L94.985,62.009 C94.985,62.883 94.7435,63.5845 94.2605,64.1135 C93.7775,64.6425 93.1373333,64.907 92.34,64.907 C91.65,64.907 91.144,64.7153333 90.822,64.332 C90.5,63.9486667 90.339,63.3583333 90.339,62.561 L90.339,62.561 L90.339,56.88 C90.339,56.466 90.2086667,56.1363333 89.948,55.891 C89.6873333,55.6456667 89.3346667,55.523 88.89,55.523 C88.4606667,55.523 88.1156667,55.6456667 87.855,55.891 C87.5943333,56.1363333 87.464,56.466 87.464,56.88 L87.464,56.88 L87.464,62.538 C87.464,65.6353333 88.844,67.184 91.604,67.184 Z M104.921,67.184 C106.362333,67.184 107.516167,66.8696667 108.3825,66.241 C109.248833,65.6123333 109.682,64.7766667 109.682,63.734 C109.682,63.09 109.5555,62.561 109.3025,62.147 C109.0495,61.733 108.631667,61.388 108.049,61.112 C107.466333,60.836 106.661333,60.5906667 105.634,60.376 C104.668,60.1766667 104.016333,59.9773333 103.679,59.778 C103.341667,59.5786667 103.173,59.2873333 103.173,58.904 C103.173,58.5053333 103.337833,58.191 103.6675,57.961 C103.997167,57.731 104.445667,57.616 105.013,57.616 C105.488333,57.616 105.887,57.6735 106.209,57.7885 C106.531,57.9035 106.914333,58.076 107.359,58.306 C107.604333,58.444 107.8075,58.5475 107.9685,58.6165 C108.1295,58.6855 108.294333,58.72 108.463,58.72 C108.708333,58.72 108.915333,58.6165 109.084,58.4095 C109.252667,58.2025 109.337,57.9456667 109.337,57.639 C109.337,57.133 109.091667,56.7266667 108.601,56.42 C108.125667,56.1133333 107.589,55.8795 106.991,55.7185 C106.393,55.5575 105.772,55.477 105.128,55.477 C104.238667,55.477 103.445167,55.6265 102.7475,55.9255 C102.049833,56.2245 101.501667,56.6461667 101.103,57.1905 C100.704333,57.7348333 100.505,58.3443333 100.505,59.019 C100.505,59.9083333 100.800167,60.606 101.3905,61.112 C101.980833,61.618 102.958333,62.009 104.323,62.285 C105.089667,62.4536667 105.660833,62.6031667 106.0365,62.7335 C106.412167,62.8638333 106.672833,63.0056667 106.8185,63.159 C106.964167,63.3123333 107.037,63.5193333 107.037,63.78 C107.037,64.1633333 106.856833,64.4623333 106.4965,64.677 C106.136167,64.8916667 105.634,64.999 104.99,64.999 C104.361333,64.999 103.843833,64.9376667 103.4375,64.815 C103.031167,64.6923333 102.582667,64.516 102.092,64.286 C101.632,64.0406667 101.271667,63.918 101.011,63.918 C100.765667,63.918 100.558667,64.0138333 100.39,64.2055 C100.221333,64.3971667 100.137,64.6463333 100.137,64.953 C100.137,65.4896667 100.382333,65.9036667 100.873,66.195 C101.900333,66.8543333 103.249667,67.184 104.921,67.184 Z M117.272,67.184 C117.87,67.184 118.498667,67.0958333 119.158,66.9195 C119.817333,66.7431667 120.407667,66.5093333 120.929,66.218 C121.496333,65.896 121.78,65.4973333 121.78,65.022 C121.78,64.6846667 121.6995,64.4163333 121.5385,64.217 C121.3775,64.0176667 121.166667,63.918 120.906,63.918 C120.691333,63.918 120.354,64.0406667 119.894,64.286 C119.418667,64.5006667 118.993167,64.6693333 118.6175,64.792 C118.241833,64.9146667 117.808667,64.976 117.318,64.976 C116.352,64.976 115.616,64.7268333 115.11,64.2285 C114.604,63.7301667 114.305,62.952 114.213,61.894 L114.213,61.894 L120.998,61.894 C121.580667,61.894 121.872,61.5643333 121.872,60.905 C121.872,59.801 121.665,58.8426667 121.251,58.03 C120.837,57.2173333 120.254333,56.5886667 119.503,56.144 C118.751667,55.6993333 117.87,55.477 116.858,55.477 C115.8,55.477 114.853167,55.7223333 114.0175,56.213 C113.181833,56.7036667 112.534,57.3936667 112.074,58.283 C111.614,59.1723333 111.384,60.192 111.384,61.342 C111.384,63.1513333 111.913,64.5773333 112.971,65.62 C114.029,66.6626667 115.462667,67.184 117.272,67.184 Z M119.411,60.353 L114.213,60.353 C114.305,59.433 114.584833,58.7276667 115.0525,58.237 C115.520167,57.7463333 116.145,57.501 116.927,57.501 C117.693667,57.501 118.291667,57.7425 118.721,58.2255 C119.150333,58.7085 119.380333,59.4176667 119.411,60.353 L119.411,60.353 Z M125.575,67.138 C126.065667,67.138 126.472,66.9731667 126.794,66.6435 C127.116,66.3138333 127.277,65.9036667 127.277,65.413 C127.277,64.9223333 127.116,64.5121667 126.794,64.1825 C126.472,63.8528333 126.065667,63.688 125.575,63.688 C125.084333,63.688 124.678,63.8528333 124.356,64.1825 C124.034,64.5121667 123.873,64.9223333 123.873,65.413 C123.873,65.9036667 124.034,66.3138333 124.356,66.6435 C124.678,66.9731667 125.084333,67.138 125.575,67.138 Z" id="Zuhause." fill="#FFFFFF" fill-rule="nonzero"></path>
        <g id="Path-3-+-Path-2-+-Shape-Mask" transform="translate(-0.755869, 78.000000)">
            <mask id="mask-6" fill="white">
                <use xlink:href="#path-5"></use>
            </mask>
            <use id="Mask" fill="#079AE2" opacity="0.908179874" xlink:href="#path-5"></use>
            <path d="M-5.38503858,27.3261156 L4.6009989,29.8216893 C4.6009989,29.8216893 6.61931903,30.4665396 8.48466759,29.8216893 C14.6387881,26.5979508 18.615608,25.2478286 19.1321832,24.6902836 C19.6487584,24.1327386 19.8412546,22.0168728 17.5986821,22.5797711 C15.3561096,23.1426695 13.5726806,23.8405155 11.4276655,24.5244859" id="Path-3" stroke="#FFFFFF" mask="url(#mask-6)"></path>
            <path d="M-7,21.4009382 C-7,21.4009382 -4.12324105,20.1000204 -1.94422824,20.3150157 C0.234784543,20.530011 2.9540194,21.9735482 5.13602493,22.3550739 C7.31803047,22.7365996 9.93053859,22.6149004 10.7970066,23.0654363 C12.2574464,24.1387196 11.1412709,25.2653066 10.5502557,25.4469497 C9.20181693,25.7853766 2.77152318,25.2004164 2.77152318,25.2004164" id="Path-2" stroke="#FFFFFF" mask="url(#mask-6)"></path>
            <path d="M11.2225355,7 C13.7262263,7 15.7558688,9.00672848 15.7558688,11.4821535 C15.7558688,12.3990513 15.2182681,13.5417864 14.1430667,14.9103589 L8.5320387,20.6714062 C8.11413785,21.1004803 7.42752903,21.109538 6.99845498,20.6916371 C6.99186853,20.6852222 6.98536393,20.6787238 6.97894275,20.6721434 L1.35586881,14.9096827 L1.35586881,14.9096827 C0.289202144,13.541561 -0.24413119,12.3990513 -0.24413119,11.4821535 C-0.24413119,9.00672848 1.78551128,7 4.28920214,7 C5.68000179,7 6.9245196,7.61923622 7.7561017,8.59406522 C8.58721802,7.61923622 9.83173583,7 11.2225355,7 Z" id="Shape" stroke="#FFFFFF" stroke-width="1.4" mask="url(#mask-6)"></path>
        </g>
        <path d="M42.108,106 C43.8406667,106 45.2015,105.609 46.1905,104.827 C47.1795,104.045 47.674,102.964 47.674,101.584 C47.674,100.587333 47.4171667,99.744 46.9035,99.054 C46.3898333,98.364 45.6653333,97.8886667 44.73,97.628 C45.5273333,97.3366667 46.1521667,96.8766667 46.6045,96.248 C47.0568333,95.6193333 47.283,94.8756667 47.283,94.017 C47.283,92.683 46.8038333,91.6441667 45.8455,90.9005 C44.8871667,90.1568333 43.5646667,89.785 41.878,89.785 L41.878,89.785 L36.174,89.785 C35.7293333,89.785 35.3805,89.9076667 35.1275,90.153 C34.8745,90.3983333 34.748,90.7433333 34.748,91.188 L34.748,91.188 L34.748,104.597 C34.748,105.041667 34.8745,105.386667 35.1275,105.632 C35.3805,105.877333 35.7293333,106 36.174,106 L36.174,106 L42.108,106 Z M41.395,96.616 L37.646,96.616 L37.646,92.085 L41.395,92.085 C42.4223333,92.085 43.189,92.269 43.695,92.637 C44.201,93.005 44.454,93.5723333 44.454,94.339 C44.454,95.857 43.4343333,96.616 41.395,96.616 L41.395,96.616 Z M41.786,103.7 L37.646,103.7 L37.646,98.916 L41.786,98.916 C42.844,98.916 43.6221667,99.1153333 44.1205,99.514 C44.6188333,99.9126667 44.868,100.518333 44.868,101.331 C44.868,102.143667 44.6226667,102.741667 44.132,103.125 C43.6413333,103.508333 42.8593333,103.7 41.786,103.7 L41.786,103.7 Z M55.471,106.184 C56.069,106.184 56.6976667,106.095833 57.357,105.9195 C58.0163333,105.743167 58.6066667,105.509333 59.128,105.218 C59.6953333,104.896 59.979,104.497333 59.979,104.022 C59.979,103.684667 59.8985,103.416333 59.7375,103.217 C59.5765,103.017667 59.3656667,102.918 59.105,102.918 C58.8903333,102.918 58.553,103.040667 58.093,103.286 C57.6176667,103.500667 57.1921667,103.669333 56.8165,103.792 C56.4408333,103.914667 56.0076667,103.976 55.517,103.976 C54.551,103.976 53.815,103.726833 53.309,103.2285 C52.803,102.730167 52.504,101.952 52.412,100.894 L52.412,100.894 L59.197,100.894 C59.7796667,100.894 60.071,100.564333 60.071,99.905 C60.071,98.801 59.864,97.8426667 59.45,97.03 C59.036,96.2173333 58.4533333,95.5886667 57.702,95.144 C56.9506667,94.6993333 56.069,94.477 55.057,94.477 C53.999,94.477 53.0521667,94.7223333 52.2165,95.213 C51.3808333,95.7036667 50.733,96.3936667 50.273,97.283 C49.813,98.1723333 49.583,99.192 49.583,100.342 C49.583,102.151333 50.112,103.577333 51.17,104.62 C52.228,105.662667 53.6616667,106.184 55.471,106.184 Z M57.61,99.353 L52.412,99.353 C52.504,98.433 52.7838333,97.7276667 53.2515,97.237 C53.7191667,96.7463333 54.344,96.501 55.126,96.501 C55.8926667,96.501 56.4906667,96.7425 56.92,97.2255 C57.3493333,97.7085 57.5793333,98.4176667 57.61,99.353 L57.61,99.353 Z M67.684,106.115 C68.236,106.145667 68.6615,106.065167 68.9605,105.8735 C69.2595,105.681833 69.409,105.402 69.409,105.034 C69.409,104.39 69.0256667,104.045 68.259,103.999 L68.259,103.999 L67.638,103.953 C66.5953333,103.876333 66.074,103.270667 66.074,102.136 L66.074,102.136 L66.074,96.915 L68.029,96.915 C68.443,96.915 68.7611667,96.823 68.9835,96.639 C69.2058333,96.455 69.317,96.1866667 69.317,95.834 C69.317,95.4813333 69.2058333,95.213 68.9835,95.029 C68.7611667,94.845 68.443,94.753 68.029,94.753 L68.029,94.753 L66.074,94.753 L66.074,92.637 C66.074,92.223 65.9436667,91.8933333 65.683,91.648 C65.4223333,91.4026667 65.0773333,91.28 64.648,91.28 C64.2033333,91.28 63.8506667,91.4026667 63.59,91.648 C63.3293333,91.8933333 63.199,92.223 63.199,92.637 L63.199,92.637 L63.199,94.753 L62.049,94.753 C61.635,94.753 61.3168333,94.845 61.0945,95.029 C60.8721667,95.213 60.761,95.4813333 60.761,95.834 C60.761,96.1866667 60.8721667,96.455 61.0945,96.639 C61.3168333,96.823 61.635,96.915 62.049,96.915 L62.049,96.915 L63.199,96.915 L63.199,101.929 C63.199,104.505 64.487,105.885 67.063,106.069 L67.063,106.069 L67.684,106.115 Z M73.641,95.811 C73.641,95.397 73.5183333,95.0788333 73.273,94.8565 C73.0276667,94.6341667 72.7056667,94.523 72.307,94.523 C71.9083333,94.523 71.5748333,94.638 71.3065,94.868 C71.0381667,95.098 70.904,95.4276667 70.904,95.857 L70.904,95.857 L70.904,104.758 C70.904,105.202667 71.0381667,105.543833 71.3065,105.7815 C71.5748333,106.019167 71.916,106.138 72.33,106.138 C72.744,106.138 73.089,106.019167 73.365,105.7815 C73.641,105.543833 73.779,105.202667 73.779,104.758 L73.779,104.758 L73.779,99.928 C73.779,99.146 73.9898333,98.4943333 74.4115,97.973 C74.8331667,97.4516667 75.4963333,97.145 76.401,97.053 L76.401,97.053 L77.091,96.984 C77.6123333,96.9226667 77.9726667,96.7923333 78.172,96.593 C78.3713333,96.3936667 78.471,96.087 78.471,95.673 C78.471,95.2743333 78.356,94.9753333 78.126,94.776 C77.896,94.5766667 77.5816667,94.4923333 77.183,94.523 L77.183,94.523 L76.861,94.546 C76.1556667,94.592 75.5155,94.799 74.9405,95.167 C74.3655,95.535 73.9323333,96.0563333 73.641,96.731 L73.641,96.73 L73.641,95.811 Z M84.98,106.184 C85.578,106.184 86.2066667,106.095833 86.866,105.9195 C87.5253333,105.743167 88.1156667,105.509333 88.637,105.218 C89.2043333,104.896 89.488,104.497333 89.488,104.022 C89.488,103.684667 89.4075,103.416333 89.2465,103.217 C89.0855,103.017667 88.8746667,102.918 88.614,102.918 C88.3993333,102.918 88.062,103.040667 87.602,103.286 C87.1266667,103.500667 86.7011667,103.669333 86.3255,103.792 C85.9498333,103.914667 85.5166667,103.976 85.026,103.976 C84.06,103.976 83.324,103.726833 82.818,103.2285 C82.312,102.730167 82.013,101.952 81.921,100.894 L81.921,100.894 L88.706,100.894 C89.2886667,100.894 89.58,100.564333 89.58,99.905 C89.58,98.801 89.373,97.8426667 88.959,97.03 C88.545,96.2173333 87.9623333,95.5886667 87.211,95.144 C86.4596667,94.6993333 85.578,94.477 84.566,94.477 C83.508,94.477 82.5611667,94.7223333 81.7255,95.213 C80.8898333,95.7036667 80.242,96.3936667 79.782,97.283 C79.322,98.1723333 79.092,99.192 79.092,100.342 C79.092,102.151333 79.621,103.577333 80.679,104.62 C81.737,105.662667 83.1706667,106.184 84.98,106.184 Z M87.119,99.353 L81.921,99.353 C82.013,98.433 82.2928333,97.7276667 82.7605,97.237 C83.2281667,96.7463333 83.853,96.501 84.635,96.501 C85.4016667,96.501 85.9996667,96.7425 86.429,97.2255 C86.8583333,97.7085 87.0883333,98.4176667 87.119,99.353 L87.119,99.353 Z M95.997,106.184 C96.7483333,106.184 97.423,106.019167 98.021,105.6895 C98.619,105.359833 99.0943333,104.888333 99.447,104.275 L99.447,104.275 L99.447,104.85 C99.447,105.248667 99.5696667,105.563 99.815,105.793 C100.060333,106.023 100.39,106.138 100.804,106.138 C101.233333,106.138 101.582167,106.015333 101.8505,105.77 C102.118833,105.524667 102.253,105.202667 102.253,104.804 L102.253,104.804 L102.253,95.88 C102.253,95.466 102.122667,95.1363333 101.862,94.891 C101.601333,94.6456667 101.248667,94.523 100.804,94.523 C100.374667,94.523 100.029667,94.6456667 99.769,94.891 C99.5083333,95.1363333 99.378,95.466 99.378,95.88 L99.378,95.88 L99.378,101.009 C99.378,101.883 99.1365,102.5845 98.6535,103.1135 C98.1705,103.6425 97.5303333,103.907 96.733,103.907 C96.043,103.907 95.537,103.715333 95.215,103.332 C94.893,102.948667 94.732,102.358333 94.732,101.561 L94.732,101.561 L94.732,95.88 C94.732,95.466 94.6016667,95.1363333 94.341,94.891 C94.0803333,94.6456667 93.7276667,94.523 93.283,94.523 C92.8536667,94.523 92.5086667,94.6456667 92.248,94.891 C91.9873333,95.1363333 91.857,95.466 91.857,95.88 L91.857,95.88 L91.857,101.538 C91.857,104.635333 93.237,106.184 95.997,106.184 Z M110.51,106.115 C111.062,106.145667 111.4875,106.065167 111.7865,105.8735 C112.0855,105.681833 112.235,105.402 112.235,105.034 C112.235,104.39 111.851667,104.045 111.085,103.999 L111.085,103.999 L110.464,103.953 C109.421333,103.876333 108.9,103.270667 108.9,102.136 L108.9,102.136 L108.9,96.915 L110.855,96.915 C111.269,96.915 111.587167,96.823 111.8095,96.639 C112.031833,96.455 112.143,96.1866667 112.143,95.834 C112.143,95.4813333 112.031833,95.213 111.8095,95.029 C111.587167,94.845 111.269,94.753 110.855,94.753 L110.855,94.753 L108.9,94.753 L108.9,92.637 C108.9,92.223 108.769667,91.8933333 108.509,91.648 C108.248333,91.4026667 107.903333,91.28 107.474,91.28 C107.029333,91.28 106.676667,91.4026667 106.416,91.648 C106.155333,91.8933333 106.025,92.223 106.025,92.637 L106.025,92.637 L106.025,94.753 L104.875,94.753 C104.461,94.753 104.142833,94.845 103.9205,95.029 C103.698167,95.213 103.587,95.4813333 103.587,95.834 C103.587,96.1866667 103.698167,96.455 103.9205,96.639 C104.142833,96.823 104.461,96.915 104.875,96.915 L104.875,96.915 L106.025,96.915 L106.025,101.929 C106.025,104.505 107.313,105.885 109.889,106.069 L109.889,106.069 L110.51,106.115 Z M115.087,106.138 C115.577667,106.138 115.984,105.973167 116.306,105.6435 C116.628,105.313833 116.789,104.903667 116.789,104.413 C116.789,103.922333 116.628,103.512167 116.306,103.1825 C115.984,102.852833 115.577667,102.688 115.087,102.688 C114.596333,102.688 114.19,102.852833 113.868,103.1825 C113.546,103.512167 113.385,103.922333 113.385,104.413 C113.385,104.903667 113.546,105.313833 113.868,105.6435 C114.19,105.973167 114.596333,106.138 115.087,106.138 Z" id="Betreut." fill="#FFFFFF" fill-rule="nonzero"></path>
        <g id="Group-2" transform="translate(-8.000000, 85.000000)">
            <g id="betreuung" transform="translate(0.000000, 13.000000)"></g>
        </g>
    </g>
</svg>